<?xml version="1.0" encoding="UTF-8" standalone="no"?>
<!-- Created with Inkscape (http://www.inkscape.org/) -->

<svg
   width="550"
   height="550"
   viewBox="0 0 145.52083 145.52084"
   version="1.1"
   id="svg1"
   xml:space="preserve"
   xmlns:xlink="http://www.w3.org/1999/xlink"
   xmlns="http://www.w3.org/2000/svg"
   xmlns:svg="http://www.w3.org/2000/svg"><defs
     id="defs1"><linearGradient
       id="linearGradient23"><stop
         style="stop-color:#247c26;stop-opacity:0;"
         offset="0.18145162"
         id="stop23" /><stop
         style="stop-color:#15501e;stop-opacity:1;"
         offset="0.69758064"
         id="stop24" /></linearGradient><linearGradient
       id="linearGradient21"><stop
         style="stop-color:#134a1e;stop-opacity:1;"
         offset="0"
         id="stop21" /><stop
         style="stop-color:#297623;stop-opacity:1;"
         offset="1"
         id="stop22" /></linearGradient><linearGradient
       id="linearGradient19"><stop
         style="stop-color:#134a1e;stop-opacity:1;"
         offset="0.21169356"
         id="stop19" /><stop
         style="stop-color:#3fa329;stop-opacity:1;"
         offset="1"
         id="stop20" /></linearGradient><linearGradient
       xlink:href="#linearGradient19"
       id="linearGradient20"
       x1="108.07532"
       y1="81.725243"
       x2="108.07532"
       y2="156.56049"
       gradientUnits="userSpaceOnUse" /><linearGradient
       xlink:href="#linearGradient21"
       id="linearGradient22"
       x1="108.07532"
       y1="81.592743"
       x2="108.07532"
       y2="156.69298"
       gradientUnits="userSpaceOnUse" /><linearGradient
       xlink:href="#linearGradient23"
       id="linearGradient24"
       x1="108.07454"
       y1="149.52524"
       x2="108.07454"
       y2="206.452"
       gradientUnits="userSpaceOnUse" /></defs><g
     id="g13"
     style="display:inline"
     transform="translate(-35.579482,-67.672294)"><path
       id="path7"
       style="display:inline;fill:#0c4b55;fill-opacity:1;stroke-width:0.264583"
       d="m 108.60474,94.883097 c -13.690661,-1.02e-4 -24.789189,11.098433 -24.789185,24.789193 2.84e-4,13.69056 11.098726,24.78877 24.789185,24.78866 13.69025,-1.8e-4 24.78838,-11.0983 24.78867,-24.78866 0,-13.69057 -11.09821,-24.789009 -24.78867,-24.789193 z m -3.0794,3.31556 h 6.15828 l 0.92449,5.820323 4.23437,1.7539 4.76922,-3.46181 4.35374,4.35374 -3.46181,4.76973 1.75391,4.23386 5.82031,0.92448 v 6.15829 l -5.82032,0.92449 -1.75389,4.23385 3.4618,4.76922 -4.35426,4.35425 -4.76922,-3.4618 -2.69906,1.11827 -3.47213,-9.22631 a 6.1635537,6.1635537 0 0 0 4.09742,-5.79085 6.1635537,6.1635537 0 0 0 -6.16345,-6.16397 6.1635537,6.1635537 0 0 0 -6.16396,6.16396 6.1635537,6.1635537 0 0 0 3.75274,5.66219 l -3.46749,9.21391 -2.35903,-0.9772 -4.769218,3.4618 -4.354255,-4.35426 3.461805,-4.76921 -1.753899,-4.23386 -5.820315,-0.92449 v -6.15828 l 5.820314,-0.92448 1.753899,-4.23386 -3.461806,-4.76973 4.353741,-4.35374 4.769734,3.4618 4.23385,-1.75389 z" /><path
       id="path9"
       style="display:inline;fill:#1899b0;fill-opacity:1;stroke-width:0.264583"
       d="m 108.07557,94.35393 c -13.690658,-1.02e-4 -24.789186,11.09843 -24.789182,24.78919 2.84e-4,13.69056 11.098726,24.78877 24.789182,24.78866 13.69025,-1.8e-4 24.78838,-11.0983 24.78867,-24.78866 0,-13.69057 -11.09821,-24.789006 -24.78867,-24.78919 z m -3.0794,3.31556 h 6.15828 l 0.92449,5.82032 4.23437,1.7539 4.76922,-3.46181 4.35374,4.35374 -3.46181,4.76973 1.75391,4.23386 5.82031,0.92448 v 6.15829 l -5.82032,0.92449 -1.75389,4.23385 3.4618,4.76922 -4.35426,4.35425 -4.76922,-3.4618 -2.69906,1.11827 -3.47213,-9.22631 a 6.1635537,6.1635537 0 0 0 4.09742,-5.79085 6.1635537,6.1635537 0 0 0 -6.16345,-6.16397 6.1635537,6.1635537 0 0 0 -6.16396,6.16396 6.1635537,6.1635537 0 0 0 3.75274,5.66219 l -3.46749,9.21391 -2.359027,-0.9772 -4.769218,3.4618 -4.354255,-4.35426 3.461805,-4.76921 -1.753899,-4.23386 -5.820315,-0.92449 v -6.15828 l 5.820314,-0.92448 1.753899,-4.23386 -3.461806,-4.76973 4.353741,-4.35374 4.769734,3.4618 4.233847,-1.75389 z" /></g><g
     id="g24"
     style="display:inline"
     transform="translate(-35.314917,-67.672294)"><path
       id="path22"
       style="display:inline;fill:#247c26;fill-opacity:1;stroke:none;stroke-width:0.264999;stroke-linejoin:miter;stroke-dasharray:none;stroke-opacity:1;paint-order:normal"
       d="m 108.07506,73.493188 c -9.454368,4.7e-5 -18.237284,2.874237 -25.522993,7.796424 -0.607149,0.410181 -1.20368,0.834125 -1.789555,1.272274 l -5.17e-4,5.16e-4 c -0.125335,0.09374 -0.244634,0.194916 -0.368969,0.289905 -0.726542,0.555051 -1.432607,1.134406 -2.123902,1.731161 -0.84938,0.733223 -1.680207,1.48744 -2.473234,2.280481 -1.548922,1.54894 -2.987119,3.208486 -4.301546,4.966105 -0.876285,1.171745 -1.697294,2.386707 -2.459798,3.641638 -4.193772,6.902118 -6.608954,15.004928 -6.608899,23.671428 0.0055,1.06166 0.05587,2.11984 0.134875,3.17448 0.0504,0.71635 0.132087,1.42391 0.215491,2.13217 0.03265,0.26693 0.06342,0.53379 0.100769,0.79995 0.77909,5.74018 2.619177,11.18219 5.364531,16.09411 l -0.04754,0.002 39.879217,67.25843 c 13.29033,-22.42096 26.58857,-44.83957 39.88387,-67.25843 l -0.0475,-0.002 c 2.74535,-4.91192 4.58544,-10.35393 5.36453,-16.09411 0.0373,-0.26616 0.0681,-0.53302 0.10077,-0.79995 0.0834,-0.70826 0.16509,-1.41582 0.21549,-2.13217 0.079,-1.05464 0.12942,-2.11282 0.13487,-3.17448 6e-5,-8.66657 -2.41507,-16.76928 -6.6089,-23.671428 -0.7625,-1.254931 -1.58351,-2.469893 -2.45979,-3.641638 -1.31443,-1.757619 -2.75263,-3.417165 -4.30155,-4.966105 -0.79303,-0.793041 -1.62385,-1.547258 -2.47323,-2.280481 -0.25662,-0.221521 -0.50688,-0.450255 -0.76843,-0.66611 h -5.2e-4 c -0.44288,-0.365493 -0.89829,-0.71617 -1.35496,-1.065051 -0.70554,-0.53901 -1.42199,-1.064749 -2.15904,-1.562695 -1.21417,-0.820279 -2.47007,-1.583986 -3.76359,-2.286682 h -5.2e-4 c -0.64669,-0.351305 -1.30274,-0.687726 -1.96784,-1.008208 h -5.1e-4 c -0.6651,-0.320473 -1.33905,-0.62546 -2.02159,-0.914156 h -5.1e-4 c -1.36523,-0.577436 -2.76427,-1.090744 -4.19354,-1.535306 h -5.2e-4 c -0.71456,-0.222249 -1.43662,-0.427346 -2.16576,-0.61495 h -5.2e-4 c -0.72914,-0.187596 -1.46537,-0.357534 -2.20813,-0.50953 h -5.2e-4 c -0.74276,-0.151987 -1.49198,-0.286094 -2.24741,-0.401525 h -5.1e-4 c -0.75543,-0.115424 -1.51696,-0.21251 -2.2841,-0.290422 h -5.2e-4 c -0.76714,-0.0779 -1.53979,-0.136781 -2.31769,-0.176217 h -5.1e-4 c -0.77807,-0.03943 -1.56134,-0.05943 -2.34921,-0.05943 z m 5.1e-4,9.997323 a 35.652603,35.652603 0 0 1 35.65261,35.652609 35.652603,35.652603 0 0 1 -35.65261,35.6526 35.652603,35.652603 0 0 1 -35.6526,-35.6526 35.652603,35.652603 0 0 1 35.6526,-35.652609 z" /><path
       id="path23"
       style="display:inline;fill:url(#linearGradient24);stroke:none;stroke-width:0.264999;stroke-linejoin:miter;stroke-dasharray:none;stroke-opacity:1;paint-order:normal"
       d="m 79.611161,153.9875 28.461829,48.00224 c 9.48528,-16.00179 18.97554,-32.0019 28.46493,-48.00224 z" /><path
       id="path19"
       style="display:inline;fill:url(#linearGradient20);stroke:url(#linearGradient22);stroke-width:0.264999;stroke-linejoin:miter;stroke-dasharray:none;paint-order:normal"
       d="M 108.07557,81.725244 A 37.417728,37.417728 0 0 0 70.657703,119.1426 37.417728,37.417728 0 0 0 108.07557,156.56047 37.417728,37.417728 0 0 0 145.49293,119.1426 37.417728,37.417728 0 0 0 108.07557,81.725244 Z m 0,3.460771 A 33.956589,33.956589 0 0 1 142.03216,119.1426 33.956589,33.956589 0 0 1 108.07557,153.0997 33.956589,33.956589 0 0 1 74.118473,119.1426 33.956589,33.956589 0 0 1 108.07557,85.186015 Z" /><path
       id="rect24"
       mask="none"
       style="display:inline;opacity:0.148;mix-blend-mode:darken;fill:#000000;fill-opacity:1;stroke:none;stroke-width:0.264999;stroke-linejoin:miter;stroke-dasharray:none;stroke-opacity:1;paint-order:normal"
       d="m 108.07275,73.493127 v 11.692827 a 33.956588,33.956588 0 0 1 0.003,0 33.956588,33.956588 0 0 1 33.95659,33.956586 33.956588,33.956588 0 0 1 -33.95659,33.9571 33.956588,33.956588 0 0 1 -0.003,0 v 55.50462 c 13.29034,-22.42103 26.58857,-44.83957 39.88387,-67.25843 l -0.047,-0.002 c 2.74535,-4.91192 4.58545,-10.35392 5.36454,-16.09411 0.0373,-0.26616 0.0681,-0.53303 0.10076,-0.79995 0.0834,-0.70826 0.16509,-1.41582 0.21549,-2.13217 0.079,-1.05464 0.12943,-2.11284 0.13488,-3.17449 6e-5,-8.66657 -2.41507,-16.76928 -6.6089,-23.671419 -0.7625,-1.254932 -1.58352,-2.469893 -2.4598,-3.641638 -1.31443,-1.757619 -2.75262,-3.417167 -4.30154,-4.966106 -0.79303,-0.793041 -1.62386,-1.54726 -2.47324,-2.280481 -0.25662,-0.221523 -0.50688,-0.450254 -0.76843,-0.666109 h -5.1e-4 c -0.44288,-0.365493 -0.89829,-0.716171 -1.35496,-1.065051 -0.70554,-0.539012 -1.42199,-1.064749 -2.15904,-1.562695 -1.21417,-0.82028 -2.47007,-1.583986 -3.76359,-2.286682 h -0.001 c -0.64669,-0.351306 -1.30274,-0.687726 -1.96784,-1.008208 h -5.1e-4 c -0.6651,-0.320474 -1.33905,-0.625459 -2.02159,-0.914156 h -5.1e-4 c -1.36523,-0.577435 -2.76427,-1.090744 -4.19354,-1.535307 h -5.2e-4 c -0.71456,-0.222247 -1.43662,-0.427344 -2.16576,-0.614949 h -5.2e-4 c -0.72914,-0.187595 -1.46537,-0.357535 -2.20813,-0.50953 h -5.2e-4 c -0.74275,-0.151988 -1.49198,-0.286093 -2.24741,-0.401526 h -5.1e-4 c -0.75544,-0.115421 -1.51696,-0.212509 -2.2841,-0.290421 h -5.2e-4 c -0.76714,-0.0779 -1.53979,-0.136781 -2.31769,-0.176217 h -5.1e-4 c -0.77807,-0.03943 -1.56134,-0.05943 -2.34921,-0.05943 z" /></g></svg>
